PathFileType	4	(X/Y/Z)	/Users/rkoike/Documents/python/sports2d/webcam_20250611_152632/webcam_20250611_152632_px_person03.trc
DataRate	CameraRate	NumFrames	NumMarkers	Units	OrigDataRate	OrigDataStartFrame	OrigNumFrames
30	30	12	22	m	30	310	2485
Frame#	Time	Hip			RHip			RKnee			RAnkle			RBigToe			RSmallToe			RHeel			LHip			LKnee			LAnkle			LBigToe			LSmallToe			LHeel			Neck			Head			Nose			RShoulder			RElbow			RWrist			LShoulder			LElbow			LWrist			
		X1	Y1	Z1	X2	Y2	Z2	X3	Y3	Z3	X4	Y4	Z4	X5	Y5	Z5	X6	Y6	Z6	X7	Y7	Z7	X8	Y8	Z8	X9	Y9	Z9	X10	Y10	Z10	X11	Y11	Z11	X12	Y12	Z12	X13	Y13	Z13	X14	Y14	Z14	X15	Y15	Z15	X16	Y16	Z16	X17	Y17	Z17	X18	Y18	Z18	X19	Y19	Z19	X20	Y20	Z20	X21	Y21	Z21	X22	Y22	Z22
310	10.337493290391839	420.2939500875232	519.670406330295	0.0	391.0715762910661	517.6972864824672	0.0	359.91778594390405	671.7155383123556	0.0	310.9986787584699	714.6194815011663	0.0	1317.7905273437502	232.90283203125	0.0	286.8865868205662	721.7535272074039	0.0	296.3203392391605	714.6608596124015	0.0	445.650320425347	525.4685121757876	0.0	484.6160862787323	675.4702776673115	0.0	509.59728202818445	712.7009797714005	0.0	534.4693015169462	724.403130972068	0.0	523.2876449071679	722.3777392240585	0.0	487.7235922917023	718.5531266612908	0.0	426.0992060633402	299.4803670241036	0.0	443.73964886976665	198.1890874925582	0.0	457.41761538028567	252.73938615028285	0.0	392.97549730754673	311.14994206734843	0.0	439.5434725298387	398.94836276811895	0.0	517.3824174093714	430.4164548430298	0.0	445.6635320170534	319.00173582088496	0.0	449.57224070432505	410.58823473394085	0.0	494.3053204301557	459.24647868238895	0.0
311	10.370840042941492	420.62693974584084	519.7081494042562	0.0	391.39705037878065	517.7422998036734	0.0	360.2481444787594	671.7037139691936	0.0	311.4451084161694	714.5765310917842	0.0	1317.7905273437502	232.90283203125	0.0	286.8574608787573	721.7205877074679	0.0	296.01174942640444	714.6404910028253	0.0	445.97110329171994	525.535204587718	0.0	484.97356247913655	675.5452746089463	0.0	510.3066441953163	712.6452980043714	0.0	535.4801133150511	724.31687177517	0.0	523.8826465498393	722.3624445403849	0.0	488.7405156300846	718.4792549838129	0.0	426.4571489816218	299.5316514885326	0.0	444.03406261927404	198.22913746581793	0.0	457.6833715012301	252.77484047998897	0.0	393.3465972826259	311.21300733090203	0.0	440.0917010284096	398.9253243828524	0.0	518.0812248541216	430.1665639953438	0.0	445.96989064288886	319.0288915803011	0.0	449.81443247964893	410.624802798147	0.0	494.649854378939	459.47553930166987	0.0
312	10.404186795491142	420.7277608503174	519.7341146918953	0.0	391.5001511165618	517.7841429588076	0.0	360.33170958952394	671.7003508555422	0.0	311.6291726256611	714.5596601269036	0.0	1317.7905273437505	232.90283203125	0.0	287.22775107969534	721.6609761386125	0.0	295.92113862742974	714.5751925807464	0.0	446.05670402449783	525.5817239485573	0.0	485.03715837001477	675.6044844312087	0.0	510.4354715841225	712.6117850574284	0.0	535.7961820013659	724.2927121559989	0.0	524.0407184509645	722.3571969591736	0.0	489.0404608941279	718.4513626310363	0.0	426.5751355077959	299.5703482056827	0.0	444.1051496222183	198.25569350316454	0.0	457.7399126616107	252.8073404186242	0.0	393.45764877535566	311.26126897098726	0.0	440.25020763325807	398.92675711139884	0.0	518.2235575724878	430.0677732562388	0.0	446.05366888031034	319.05156501017376	0.0	449.9287544753535	410.6301909928209	0.0	494.76503062315936	459.4014356961763	0.0
313	10.437533548040793	420.6998124013858	519.7363188896132	0.0	391.47451672136026	517.7907908346135	0.0	360.2978997938082	671.7014234851579	0.0	311.6097714486857	714.5618362085199	0.0	1317.7905273437505	232.90283203125	0.0	287.3702867635589	721.6453981035679	0.0	295.94808219062804	714.5550515198902	0.0	446.025521513194	525.5858547037934	0.0	484.99065933584166	675.6116785019693	0.0	510.34417257295104	712.6103044709299	0.0	535.7150452014757	724.3006754214025	0.0	523.9826196753291	722.3582527736346	0.0	488.95216931267703	718.4555208782369	0.0	426.5486439117424	299.5746053981329	0.0	444.07376737780453	198.25766427194236	0.0	457.70876694410305	252.81240752087396	0.0	393.42601813612833	311.266753798748	0.0	440.20142840909466	398.93179782165043	0.0	518.139315930814	430.08019992793663	0.0	446.0246374000176	319.05462593886745	0.0	449.92357462751534	410.62502147671444	0.0	494.7401262379042	459.32919871678007	0.0
314	10.470880300590444	420.6697423279272	519.7320489897118	0.0	391.4448553660875	517.7850538594827	0.0	360.26904278695105	671.7024784016629	0.0	311.5665595182844	714.5659439302638	0.0	1317.7905273437502	232.90283203125	0.0	287.3504489614098	721.6513144749716	0.0	295.97578159304874	714.5603953035497	0.0	445.99723675307985	525.5782719091472	0.0	484.961023595	675.6027426945275	0.0	510.2852086618494	712.616319715273	0.0	535.6231717175467	724.3083488990278	0.0	523.9301976251716	722.3596704848379	0.0	488.86080916050486	718.462519225356	0.0	426.5157509260243	299.56860112204777	0.0	444.0482508271888	198.25319243558187	0.0	457.68618610118244	252.80791595523397	0.0	393.3925841217804	311.2593302053185	0.0	440.1523650665313	398.9333799513283	0.0	518.0803153552214	430.10413670231986	0.0	445.99750437797866	319.051317221991	0.0	449.89927448886755	410.6220561058054	0.0	494.7083700673932	459.3170158255561	0.0
315	10.504227053140095	420.6641033579905	519.7300395282526	0.0	391.4389143006298	517.7816321315701	0.0	360.26499982213176	671.7026581844598	0.0	311.5543905822687	714.5670357349342	0.0	1317.7905273437502	232.90283203125	0.0	287.31520762389465	721.656551160214	0.0	295.9807413075503	714.5663139140958	0.0	445.99289078552926	525.5746609921483	0.0	484.9591776189253	675.5980319569461	0.0	510.28129766335894	712.6188324348396	0.0	535.6051098102754	724.3096251265998	0.0	523.9222028956169	722.3599876228795	0.0	488.84433796202165	718.4642910560738	0.0	426.50878353803927	299.5655487524795	0.0	444.04496689971535	198.25115406212691	0.0	457.68394068238956	252.8052639805247	0.0	393.38642311430607	311.2555129688512	0.0	440.1437865567721	398.9329775412886	0.0	518.07500886436	430.1105486582055	0.0	445.99316280350797	319.0494951825877	0.0	449.89130921795964	410.62197259255106	0.0	494.70151196293665	459.3266590493141	0.0
316	10.537573805689746	420.6679077970827	519.730133090722	0.0	391.4425270737136	517.7814910993021	0.0	360.2691564913082	671.702518049898	0.0	311.5583554022044	714.56663483019	0.0	1317.7905273437505	232.90283203125	0.0	287.30606953823366	721.6573277402948	0.0	295.9771500796174	714.5674546059228	0.0	445.9968234319973	525.5748114897974	0.0	484.9642986239408	675.5980409819447	0.0	510.2913985026173	712.6185830741533	0.0	535.6164257127813	724.3085941401376	0.0	523.9295136852826	722.3598272039387	0.0	488.8561411565502	718.4635754097035	0.0	426.51264986086994	299.56559654995885	0.0	444.04874994015194	198.25127648315384	0.0	457.68753262252085	252.8051635223923	0.0	393.39069335871875	311.25555605170854	0.0	440.1502239359486	398.93251903391166	0.0	518.084601210466	430.10823085491313	0.0	445.9968715449273	319.0494697878987	0.0	449.8931241812581	410.62252239833504	0.0	494.70519606274297	459.33260808602586	0.0
317	10.570920558239397	420.6704178403995	519.7305611487435	0.0	391.4450254462427	517.7821090121079	0.0	360.2714841704048	671.7024310620444	0.0	311.5622033805952	714.5662728924016	0.0	1317.7905273437505	232.90283203125	0.0	287.30959357302584	721.6565892826427	0.0	295.97485183254815	714.56671716584	0.0	445.9991276612658	525.5755741770844	0.0	484.96655244661423	675.5989667533654	0.0	510.2958968742141	712.6179988985803	0.0	535.6241440538009	724.3079632570026	0.0	523.9337807158794	722.3597058241367	0.0	488.8637280795381	718.4629640064824	0.0	426.5154428970492	299.56621191435835	0.0	444.0507909217615	198.25172086662562	0.0	457.68929963101834	252.80564569867977	0.0	393.3934777530065	311.256319446883	0.0	440.15428253079466	398.93242840109184	0.0	518.0891849392548	430.10611880143	0.0	445.99909217491626	319.0498171878101	0.0	449.8953545850851	410.6227419198318	0.0	494.707900363094	459.3329181232273	0.0
318	10.604267310789048	420.6706004011713	519.7307010069	0.0	391.445241225555	517.7823649641405	0.0	360.27153037041967	671.7024263582	0.0	311.5628489399167	714.5662176499281	0.0	1317.7905273437502	232.90283203125	0.0	287.3126851811163	721.6561643357412	0.0	295.9747057861931	714.5662212961573	0.0	445.9992090630934	525.575826541113	0.0	484.96638252254905	675.5993070840141	0.0	510.29558124263485	712.6178318584532	0.0	535.6247803606019	724.3079320117612	0.0	523.9339259330163	722.359692383526	0.0	488.8642204043437	718.4628782110577	0.0	426.51571791362284	299.56642994885357	0.0	444.05080434158384	198.25186110652385	0.0	457.6892492307175	252.80584354729947	0.0	393.3936704819722	311.25659310599934	0.0	440.15452175271275	398.93248469273243	0.0	518.0890004204439	430.105792202149	0.0	445.9991865286481	319.0499505342674	0.0	449.89582338202996	410.6227153784234	0.0	494.7081782714812	459.33186777559786	0.0
319	10.637614063338699	420.6701763564537	519.7306688678311	0.0	391.4448317413211	517.7823385483873	0.0	360.2710916464488	671.7024416535894	0.0	311.56233399712886	714.5662681094278	0.0	1317.7905273437502	232.90283203125	0.0	287.31313755356155	721.6561519078386	0.0	295.9751018509543	714.5661824610893	0.0	445.998787939001	525.5757704503759	0.0	484.96587839706194	675.5992515649156	0.0	510.29458375628514	712.6178845233093	0.0	535.6235041209379	724.3080440026197	0.0	523.9331440430868	722.3597111849248	0.0	488.86291669310623	718.462966229657	0.0	426.5152726194062	299.56639002055033	0.0	444.0504096443072	198.2518259117394	0.0	457.6888845983983	252.80582224008768	0.0	393.3931964724497	311.25654474576476	0.0	440.1538154151187	398.9325232413649	0.0	518.0880346695722	430.10608508803125	0.0	445.9987865606913	319.0499317830728	0.0	449.89555986722064	410.622662584888	0.0	494.70775142173824	459.3314189332375	0.0
320	10.67096081588835	420.6699839120537	519.7306296051408	0.0	391.4446381727063	517.7822786676136	0.0	360.2709204792416	671.7024482267411	0.0	311.56201730101236	714.5662975729387	0.0	1317.7905273437505	232.90283203125	0.0	287.31269933212326	721.6562305266689	0.0	295.9752768058978	714.5662652095436	0.0	445.9986163823627	525.5757003064708	0.0	484.96572538269476	675.5991644070001	0.0	510.29427696339303	712.617936693497	0.0	535.6229079165723	724.3080915046172	0.0	523.9328266775548	722.3597207644391	0.0	488.8623385311791	718.4630155550312	0.0	426.51505421843575	299.56633257136906	0.0	444.0502611650456	198.25178544512738	0.0	457.6887597259445	252.8057756246211	0.0	393.3929835735942	311.25647328857923	0.0	440.1535075606296	398.93252646335225	0.0	518.0877139298678	430.10625727065417	0.0	445.99862028563797	319.04989874266147	0.0	449.8953706934764	410.62264827345615	0.0	494.7075392702433	459.3314587482668	0.0
321	10.704307568438002	420.6699958331979	519.7306213898365	0.0	391.4446468272508	517.7822617126479	0.0	360.27094313731953	671.7024476606231	0.0	311.562001107016	714.5662985797496	0.0	1317.7905273437505	232.90283203125	0.0	287.31244881567176	721.6562620120575	0.0	295.97526390083584	714.5663033918795	0.0	445.9986354502023	525.5756853698252	0.0	484.9657675553885	675.5991430712761	0.0	510.2943589185206	712.6179456592033	0.0	535.6229375105161	724.308087128336	0.0	523.9328625086357	722.3597206227226	0.0	488.8623801716635	718.4630165466826	0.0	426.5150607089023	299.56631916091294	0.0	444.050283585822	198.2517773832982	0.0	457.6887849828916	252.80576257121686	0.0	393.392997720151	311.2564563528867	0.0	440.15353211196697	398.93252010553687	0.0	518.0877845169613	430.1062635451895	0.0	445.9986371624641	319.04989020510345	0.0	449.89535238893905	410.62265332279406	0.0	494.70754445834433	459.3315613513969	0.0
